<svg width="27" height="25" viewBox="0 0 27 25" fill="none" xmlns="http://www.w3.org/2000/svg">
<g clip-path="url(#clip0)">
<path d="M12.0927 0.768085L0.552065 11.5109C-0.0683804 12.0885 -0.0683804 13.0214 0.552065 13.5989L12.0927 24.3418C12.7132 24.9193 13.7153 24.9193 14.3357 24.3418L19.1746 19.8374C19.7302 19.3202 19.7302 18.4816 19.1746 17.9643C18.6189 17.4471 17.718 17.4471 17.1624 17.9643L13.4941 21.379C13.3397 21.5228 13.1053 21.5228 12.9509 21.379L3.73482 12.8001C3.58039 12.6563 3.58039 12.4382 3.73482 12.2944L12.9509 3.71547C13.1053 3.57172 13.3397 3.57172 13.4941 3.71547L17.1624 7.13017C17.718 7.64741 18.6189 7.64741 19.1746 7.13017C19.7302 6.61292 19.7302 5.77431 19.1746 5.25707L14.3363 0.753228C13.7133 0.188172 12.7108 0.192746 12.0927 0.768085Z" fill="url(#paint0_linear)"/>
<path d="M12.0927 0.768085L0.552065 11.5109C-0.0683804 12.0885 -0.0683804 13.0214 0.552065 13.5989L12.0927 24.3418C12.7132 24.9193 13.7153 24.9193 14.3357 24.3418L19.1746 19.8374C19.7302 19.3202 19.7302 18.4816 19.1746 17.9643C18.6189 17.4471 17.718 17.4471 17.1624 17.9643L13.4941 21.379C13.3397 21.5228 13.1053 21.5228 12.9509 21.379L3.73482 12.8001C3.58039 12.6563 3.58039 12.4382 3.73482 12.2944L12.9509 3.71547C13.3354 3.40664 13.9628 2.78111 14.8841 2.63481C15.5688 2.52608 16.3174 2.76539 17.1298 3.35273C16.5867 2.84712 15.6555 1.98061 14.3363 0.753228C13.7133 0.188172 12.7108 0.192746 12.0927 0.768085Z" fill="url(#paint1_linear)"/>
<path d="M20.2914 16.9652C20.847 17.4825 21.7479 17.4825 22.3036 16.9652L25.873 13.6426C26.4934 13.0651 26.4934 12.1322 25.873 11.5547L22.2725 8.21505C21.7156 7.69842 20.8144 7.69916 20.2584 8.21671C19.7028 8.73395 19.7028 9.57257 20.2584 10.0898L22.6902 12.3535C22.8446 12.4972 22.8446 12.7154 22.6902 12.8592L20.2914 15.0921C19.7357 15.6094 19.7357 16.448 20.2914 16.9652Z" fill="url(#paint2_linear)"/>
<path d="M13.2717 15.5092C14.9927 15.5092 16.3877 14.2106 16.3877 12.6086C16.3877 11.0067 14.9927 9.70807 13.2717 9.70807C11.5508 9.70807 10.1558 11.0067 10.1558 12.6086C10.1558 14.2106 11.5508 15.5092 13.2717 15.5092Z" fill="url(#paint3_linear)"/>
</g>
<defs>
<linearGradient id="paint0_linear" x1="12.1995" y1="0.332978" x2="22.7313" y2="7.23649" gradientUnits="userSpaceOnUse">
<stop stop-color="#4285EB"/>
<stop offset="1" stop-color="#2EC7FF"/>
</linearGradient>
<linearGradient id="paint1_linear" x1="13.6705" y1="0.332977" x2="8.94663" y2="26.5389" gradientUnits="userSpaceOnUse">
<stop stop-color="#29CDFF"/>
<stop offset="0.378601" stop-color="#148EFF"/>
<stop offset="1" stop-color="#0A60FF"/>
</linearGradient>
<linearGradient id="paint2_linear" x1="24.3692" y1="6.59224" x2="18.0082" y2="17.2703" gradientUnits="userSpaceOnUse">
<stop stop-color="#FA816E"/>
<stop offset="0.414726" stop-color="#F74A5C"/>
<stop offset="1" stop-color="#F51D2C"/>
</linearGradient>
<linearGradient id="paint3_linear" x1="14.4015" y1="7.63761" x2="12.3502" y2="16.4453" gradientUnits="userSpaceOnUse">
<stop stop-color="#FA8E7D"/>
<stop offset="0.512635" stop-color="#F74A5C"/>
<stop offset="1" stop-color="#F51D2C"/>
</linearGradient>
<clipPath id="clip0">
<rect width="26.4064" height="24.6012" fill="white" transform="translate(0 0.254333)"/>
</clipPath>
</defs>
</svg>
