<svg width="366" height="104" viewBox="0 0 366 104" fill="none" xmlns="http://www.w3.org/2000/svg">
<g clip-path="url(#clip0)">
<path d="M46.5889 2.9663L2.12693 47.952C-0.26342 50.3705 -0.26342 54.2768 2.12693 56.6954L46.5889 101.681C48.9792 104.1 52.84 104.1 55.2304 101.681L73.8727 82.8192C76.0134 80.6533 76.0134 77.1416 73.8727 74.9756C71.7319 72.8097 68.2611 72.8097 66.1204 74.9756L51.9878 89.2747C51.3929 89.8766 50.4899 89.8766 49.895 89.2747L14.3889 53.3503C13.794 52.7484 13.794 51.8348 14.3889 51.2328L49.895 15.3085C50.4899 14.7065 51.3929 14.7065 51.9878 15.3085L66.1204 29.6075C68.2611 31.7735 71.7319 31.7735 73.8727 29.6075C76.0134 27.4416 76.0134 23.9299 73.8727 21.7639L55.2324 2.90409C52.8323 0.537914 48.9701 0.55707 46.5889 2.9663Z" fill="url(#paint0_linear)"/>
<path d="M46.5889 2.9663L2.12693 47.952C-0.26342 50.3705 -0.26342 54.2768 2.12693 56.6954L46.5889 101.681C48.9792 104.1 52.84 104.1 55.2304 101.681L73.8727 82.8192C76.0134 80.6533 76.0134 77.1416 73.8727 74.9756C71.7319 72.8097 68.2611 72.8097 66.1204 74.9756L51.9878 89.2747C51.3929 89.8766 50.4899 89.8766 49.895 89.2747L14.3889 53.3503C13.794 52.7484 13.794 51.8348 14.3889 51.2328L49.895 15.3085C51.3764 14.0152 53.7935 11.3958 57.343 10.7832C59.9809 10.3279 62.8649 11.33 65.9949 13.7895C63.9023 11.6722 60.3148 8.04377 55.2324 2.90409C52.8323 0.537914 48.9701 0.55707 46.5889 2.9663Z" fill="url(#paint1_linear)"/>
<path d="M78.1754 70.7919C80.3161 72.9579 83.7869 72.9579 85.9277 70.7919L99.6791 56.8785C102.069 54.46 102.069 50.5537 99.6794 48.1354L85.8081 34.1505C83.6623 31.9871 80.1904 31.9902 78.0484 34.1574C75.9076 36.3234 75.9076 39.8351 78.0484 42.001L87.4171 51.4802C88.0121 52.0821 88.0121 52.9957 87.4171 53.5977L78.1754 62.9483C76.0347 65.1143 76.0347 68.626 78.1754 70.7919Z" fill="url(#paint2_linear)"/>
<path d="M51.1313 64.6948C57.7613 64.6948 63.136 59.2568 63.136 52.5486C63.136 45.8405 57.7613 40.4025 51.1313 40.4025C44.5012 40.4025 39.1265 45.8405 39.1265 52.5486C39.1265 59.2568 44.5012 64.6948 51.1313 64.6948Z" fill="url(#paint3_linear)"/>
</g>
<path d="M142.738 65.0817H150.392L138.422 30.2409H129.957L118.012 65.0817H125.403L128.026 56.6311H140.115L142.738 65.0817ZM133.987 36.9049H134.154L138.565 51.1744H129.576L133.987 36.9049Z" fill="white"/>
<path d="M154.057 65.0817H161.019V50.2327C161.019 46.8766 162.998 44.5587 166.122 44.5587C169.246 44.5587 170.819 46.4903 170.819 49.8706V65.0817H177.782V48.3977C177.782 42.3374 174.587 38.7157 168.912 38.7157C164.977 38.7157 162.283 40.599 160.924 43.8103H160.781V39.1986H154.057V65.0817Z" fill="white"/>
<path d="M184.785 33.2349V39.1986H181.185V44.5104H184.785V58.1039C184.785 63.1502 187.122 65.1783 193.13 65.1783C194.537 65.1783 195.729 65.0576 196.445 64.8886V59.6975C196.016 59.7699 195.372 59.8182 194.752 59.8182C192.701 59.8182 191.748 58.8765 191.748 56.8967V44.5104H196.469V39.1986H191.748V33.2349H184.785Z" fill="white"/>
<path d="M212.025 30.2409V65.0817H225.163C235.488 65.0817 241.568 58.5868 241.568 47.5285C241.568 36.4703 235.488 30.2409 225.163 30.2409H212.025ZM219.226 36.253H224.305C230.647 36.253 234.224 40.261 234.224 47.5527C234.224 55.0858 230.743 59.0456 224.305 59.0456H219.226V36.253Z" fill="white"/>
<path d="M257.823 43.8585C260.923 43.8585 263.045 46.1281 263.188 49.436H252.339C252.577 46.2006 254.771 43.8585 257.823 43.8585ZM263.283 57.1623C262.639 59.1421 260.684 60.4218 258.133 60.4218C254.58 60.4218 252.267 57.8866 252.267 54.1925V53.7579H269.888V51.609C269.888 43.7378 265.191 38.6433 257.751 38.6433C250.193 38.6433 245.424 44.0034 245.424 52.2609C245.424 60.5425 250.145 65.6371 258.014 65.6371C264.332 65.6371 268.91 62.2327 269.673 57.1623H263.283Z" fill="white"/>
<path d="M273.792 46.8042C273.792 50.6915 276.295 53.2025 281.231 54.2649L285.594 55.1824C288.098 55.7619 288.98 56.5345 288.98 57.9108C288.98 59.6009 287.359 60.6874 284.736 60.6874C281.97 60.6874 280.373 59.4802 279.943 57.2106H273.148C273.601 62.3051 277.678 65.6371 284.736 65.6371C291.317 65.6371 295.919 62.2809 295.919 57.1864C295.919 53.3957 293.725 51.271 288.384 50.1362L284.021 49.1945C281.446 48.6392 280.492 47.7458 280.492 46.4179C280.492 44.7036 282.089 43.5929 284.498 43.5929C287.073 43.5929 288.623 45.0175 288.837 47.1181H295.251C295.108 42.0477 291.055 38.6433 284.498 38.6433C277.988 38.6433 273.792 41.8787 273.792 46.8042Z" fill="white"/>
<path d="M300.204 65.0817H307.167V39.1986H300.204V65.0817Z" fill="white"/>
<path d="M324.351 59.5767C320.894 59.5767 318.748 56.8242 318.748 52.0919C318.748 47.3837 320.918 44.438 324.351 44.438C327.833 44.438 330.05 47.432 330.05 52.0919C330.05 56.776 327.833 59.5767 324.351 59.5767ZM324.232 74.8362C331.886 74.8362 336.989 70.9006 336.989 64.7196V39.1986H330.122V43.7137H330.002C328.667 40.7439 325.782 38.7882 322.11 38.7882C315.624 38.7882 311.619 43.8344 311.619 52.0436C311.619 60.1321 315.744 65.0093 321.991 65.0093C325.687 65.0093 328.691 63.126 329.883 60.3735H330.026V64.9127C330.026 67.9067 328.023 69.9348 324.423 69.9348C321.776 69.9348 319.773 68.7034 319.225 66.9167H312.406C312.954 71.5284 317.508 74.8362 324.232 74.8362Z" fill="white"/>
<path d="M342.275 65.0817H349.238V50.2327C349.238 46.8766 351.217 44.5587 354.34 44.5587C357.464 44.5587 359.038 46.4903 359.038 49.8706V65.0817H366V48.3977C366 42.3374 362.805 38.7157 357.13 38.7157C353.196 38.7157 350.501 40.599 349.142 43.8103H348.999V39.1986H342.275V65.0817Z" fill="white"/>
<path fill-rule="evenodd" clip-rule="evenodd" d="M298.234 23.0736C297.745 23.0736 297.348 23.4718 297.348 23.9631V34.264C297.348 34.7994 297.784 35.1544 298.239 35.155H298.242C298.459 35.1547 298.68 35.0735 298.861 34.8928L309.125 24.5916C309.683 24.0317 309.287 23.0736 308.499 23.0736H298.234Z" fill="#177DDC"/>
<path fill-rule="evenodd" clip-rule="evenodd" d="M298.239 23.0736C297.784 23.0745 297.348 23.4292 297.348 23.9646V34.2661C297.348 34.7568 297.745 35.155 298.234 35.155H308.499C309.031 35.155 309.385 34.7182 309.386 34.2618V34.2594C309.386 34.041 309.305 33.8183 309.125 33.6373L298.861 23.3358C298.68 23.1551 298.459 23.0742 298.242 23.0736H298.239Z" fill="#65B7F3"/>
<path fill-rule="evenodd" clip-rule="evenodd" d="M302.139 29.6809C302.75 30.2935 302.75 31.2869 302.139 31.8995C301.529 32.5121 300.54 32.5121 299.929 31.8995C299.319 31.2869 299.319 30.2935 299.929 29.6809C300.54 29.0683 301.529 29.0683 302.139 29.6809Z" fill="#00172F"/>
<defs>
<linearGradient id="paint0_linear" x1="47.0004" y1="1.14429" x2="89.5382" y2="26.7979" gradientUnits="userSpaceOnUse">
<stop stop-color="#4285EB"/>
<stop offset="1" stop-color="#2EC7FF"/>
</linearGradient>
<linearGradient id="paint1_linear" x1="52.6676" y1="1.14429" x2="31.2889" y2="110.259" gradientUnits="userSpaceOnUse">
<stop stop-color="#29CDFF"/>
<stop offset="0.378601" stop-color="#148EFF"/>
<stop offset="1" stop-color="#0A60FF"/>
</linearGradient>
<linearGradient id="paint2_linear" x1="93.8858" y1="27.355" x2="66.247" y2="70.0414" gradientUnits="userSpaceOnUse">
<stop stop-color="#FA816E"/>
<stop offset="0.414726" stop-color="#F74A5C"/>
<stop offset="1" stop-color="#F51D2C"/>
</linearGradient>
<linearGradient id="paint3_linear" x1="55.4837" y1="31.7324" x2="46.2335" y2="68.2737" gradientUnits="userSpaceOnUse">
<stop stop-color="#FA8E7D"/>
<stop offset="0.512635" stop-color="#F74A5C"/>
<stop offset="1" stop-color="#F51D2C"/>
</linearGradient>
<clipPath id="clip0">
<rect width="101.734" height="103.017" fill="white" transform="translate(0 0.815033)"/>
</clipPath>
</defs>
</svg>
